<mxfile host="app.diagrams.net" modified="2023-03-25T08:35:11.698Z" agent="5.0 (Windows NT 10.0; Win64; x64) AppleWebKit/537.36 (KHTML, like Gecko) Chrome/111.0.0.0 Safari/537.36" etag="rh3TBGeYV2gHORVrowtF" version="21.0.8" type="github">
  <diagram id="4OnkQuiGUajiTFqm5Er3" name="Page-1">
    <mxGraphModel dx="2064" dy="1628" grid="1" gridSize="10" guides="1" tooltips="1" connect="1" arrows="1" fold="1" page="1" pageScale="1" pageWidth="850" pageHeight="1100" math="0" shadow="0">
      <root>
        <mxCell id="0" />
        <mxCell id="1" parent="0" />
        <mxCell id="wzpd3i1nVH5FS_Z6VD1y-38" value="info_lamaran" style="edgeStyle=orthogonalEdgeStyle;rounded=0;orthogonalLoop=1;jettySize=auto;html=1;exitX=0.072;exitY=0.753;exitDx=0;exitDy=0;exitPerimeter=0;" parent="1" source="wzpd3i1nVH5FS_Z6VD1y-1" target="wzpd3i1nVH5FS_Z6VD1y-2" edge="1">
          <mxGeometry x="0.4815" relative="1" as="geometry">
            <Array as="points">
              <mxPoint x="392" y="110" />
              <mxPoint x="190" y="110" />
            </Array>
            <mxPoint as="offset" />
            <mxPoint x="409.2700000000001" y="124.03999999999974" as="sourcePoint" />
            <mxPoint x="190" y="103" as="targetPoint" />
          </mxGeometry>
        </mxCell>
        <mxCell id="wzpd3i1nVH5FS_Z6VD1y-40" value="info_master_formulir" style="edgeStyle=orthogonalEdgeStyle;rounded=0;orthogonalLoop=1;jettySize=auto;html=1;" parent="1" source="wzpd3i1nVH5FS_Z6VD1y-1" target="wzpd3i1nVH5FS_Z6VD1y-2" edge="1">
          <mxGeometry x="0.1859" relative="1" as="geometry">
            <Array as="points">
              <mxPoint x="150" y="150" />
            </Array>
            <mxPoint as="offset" />
          </mxGeometry>
        </mxCell>
        <mxCell id="wzpd3i1nVH5FS_Z6VD1y-41" value="info_konfigurasi_API" style="edgeStyle=orthogonalEdgeStyle;rounded=0;orthogonalLoop=1;jettySize=auto;html=1;entryX=0.25;entryY=1;entryDx=0;entryDy=0;" parent="1" source="wzpd3i1nVH5FS_Z6VD1y-1" target="wzpd3i1nVH5FS_Z6VD1y-2" edge="1">
          <mxGeometry x="0.1181" relative="1" as="geometry">
            <Array as="points">
              <mxPoint x="110" y="190" />
            </Array>
            <mxPoint as="offset" />
            <mxPoint x="110" y="110" as="targetPoint" />
          </mxGeometry>
        </mxCell>
        <mxCell id="j5Hv5ltrt3Dy-K9MW8Oq-1" value="info_dashboard" style="edgeStyle=orthogonalEdgeStyle;rounded=0;orthogonalLoop=1;jettySize=auto;html=1;entryX=1;entryY=0.75;entryDx=0;entryDy=0;" parent="1" source="wzpd3i1nVH5FS_Z6VD1y-1" target="wzpd3i1nVH5FS_Z6VD1y-2" edge="1">
          <mxGeometry x="0.5" relative="1" as="geometry">
            <Array as="points">
              <mxPoint x="400" y="85" />
            </Array>
            <mxPoint as="offset" />
          </mxGeometry>
        </mxCell>
        <mxCell id="j5Hv5ltrt3Dy-K9MW8Oq-3" value="data_lowongan" style="edgeStyle=orthogonalEdgeStyle;rounded=0;orthogonalLoop=1;jettySize=auto;html=1;exitX=0.417;exitY=0;exitDx=0;exitDy=0;exitPerimeter=0;" parent="1" source="wzpd3i1nVH5FS_Z6VD1y-2" target="wzpd3i1nVH5FS_Z6VD1y-1" edge="1">
          <mxGeometry x="-0.3681" relative="1" as="geometry">
            <Array as="points">
              <mxPoint x="130" y="-10" />
              <mxPoint x="470" y="-10" />
            </Array>
            <mxPoint as="offset" />
          </mxGeometry>
        </mxCell>
        <mxCell id="j5Hv5ltrt3Dy-K9MW8Oq-17" value="info_lowongan" style="edgeStyle=orthogonalEdgeStyle;rounded=0;orthogonalLoop=1;jettySize=auto;html=1;entryX=0;entryY=0.333;entryDx=0;entryDy=0;entryPerimeter=0;" parent="1" source="wzpd3i1nVH5FS_Z6VD1y-1" target="wzpd3i1nVH5FS_Z6VD1y-3" edge="1">
          <mxGeometry x="-0.0543" relative="1" as="geometry">
            <Array as="points">
              <mxPoint x="500" y="170" />
              <mxPoint x="500" y="170" />
            </Array>
            <mxPoint as="offset" />
            <mxPoint x="638" y="160" as="targetPoint" />
          </mxGeometry>
        </mxCell>
        <mxCell id="VLkCCcEFtnHO4OE81r_f-4" value="Info_master_jabatan" style="edgeStyle=orthogonalEdgeStyle;rounded=0;orthogonalLoop=1;jettySize=auto;html=1;" parent="1" source="wzpd3i1nVH5FS_Z6VD1y-1" edge="1">
          <mxGeometry x="0.358" relative="1" as="geometry">
            <mxPoint x="200" y="380" as="targetPoint" />
            <Array as="points">
              <mxPoint x="450" y="390" />
              <mxPoint x="200" y="390" />
            </Array>
            <mxPoint as="offset" />
          </mxGeometry>
        </mxCell>
        <mxCell id="VLkCCcEFtnHO4OE81r_f-6" value="Info_master_formulir" style="edgeStyle=orthogonalEdgeStyle;rounded=0;orthogonalLoop=1;jettySize=auto;html=1;" parent="1" source="wzpd3i1nVH5FS_Z6VD1y-1" target="j5Hv5ltrt3Dy-K9MW8Oq-16" edge="1">
          <mxGeometry x="0.4314" relative="1" as="geometry">
            <mxPoint x="220" y="370" as="targetPoint" />
            <Array as="points">
              <mxPoint x="440" y="370" />
            </Array>
            <mxPoint as="offset" />
          </mxGeometry>
        </mxCell>
        <mxCell id="VLkCCcEFtnHO4OE81r_f-13" value="Info_master_perusahaan" style="edgeStyle=orthogonalEdgeStyle;rounded=0;orthogonalLoop=1;jettySize=auto;html=1;entryX=1;entryY=0.5;entryDx=0;entryDy=0;exitX=1;exitY=0.5;exitDx=0;exitDy=0;" parent="1" source="wzpd3i1nVH5FS_Z6VD1y-1" target="j5Hv5ltrt3Dy-K9MW8Oq-16" edge="1">
          <mxGeometry x="0.3846" relative="1" as="geometry">
            <Array as="points">
              <mxPoint x="430" y="250" />
              <mxPoint x="430" y="350" />
            </Array>
            <mxPoint as="offset" />
          </mxGeometry>
        </mxCell>
        <mxCell id="VLkCCcEFtnHO4OE81r_f-14" value="Info_dashboard" style="edgeStyle=orthogonalEdgeStyle;rounded=0;orthogonalLoop=1;jettySize=auto;html=1;entryX=1.007;entryY=0.157;entryDx=0;entryDy=0;exitX=0.998;exitY=0.563;exitDx=0;exitDy=0;exitPerimeter=0;entryPerimeter=0;" parent="1" source="wzpd3i1nVH5FS_Z6VD1y-1" target="j5Hv5ltrt3Dy-K9MW8Oq-16" edge="1">
          <mxGeometry x="0.4578" y="1" relative="1" as="geometry">
            <Array as="points">
              <mxPoint x="420" y="250" />
              <mxPoint x="420" y="329" />
            </Array>
            <mxPoint as="offset" />
          </mxGeometry>
        </mxCell>
        <mxCell id="VLkCCcEFtnHO4OE81r_f-16" value="Info_user" style="edgeStyle=orthogonalEdgeStyle;rounded=0;orthogonalLoop=1;jettySize=auto;html=1;entryX=0.833;entryY=1;entryDx=0;entryDy=0;entryPerimeter=0;" parent="1" source="wzpd3i1nVH5FS_Z6VD1y-1" target="j5Hv5ltrt3Dy-K9MW8Oq-16" edge="1">
          <mxGeometry x="0.4045" relative="1" as="geometry">
            <Array as="points">
              <mxPoint x="460" y="410" />
              <mxPoint x="190" y="410" />
            </Array>
            <mxPoint as="offset" />
          </mxGeometry>
        </mxCell>
        <mxCell id="VLkCCcEFtnHO4OE81r_f-17" value="Info_konfiigurasi_API" style="edgeStyle=orthogonalEdgeStyle;rounded=0;orthogonalLoop=1;jettySize=auto;html=1;entryX=0.75;entryY=1;entryDx=0;entryDy=0;" parent="1" source="wzpd3i1nVH5FS_Z6VD1y-1" target="j5Hv5ltrt3Dy-K9MW8Oq-16" edge="1">
          <mxGeometry x="0.2195" relative="1" as="geometry">
            <Array as="points">
              <mxPoint x="470" y="430" />
              <mxPoint x="180" y="430" />
            </Array>
            <mxPoint as="offset" />
          </mxGeometry>
        </mxCell>
        <mxCell id="VLkCCcEFtnHO4OE81r_f-18" value="Info_lowongan" style="edgeStyle=orthogonalEdgeStyle;rounded=0;orthogonalLoop=1;jettySize=auto;html=1;entryX=0.669;entryY=0.992;entryDx=0;entryDy=0;entryPerimeter=0;" parent="1" source="wzpd3i1nVH5FS_Z6VD1y-1" target="j5Hv5ltrt3Dy-K9MW8Oq-16" edge="1">
          <mxGeometry x="0.2459" relative="1" as="geometry">
            <Array as="points">
              <mxPoint x="480" y="450" />
              <mxPoint x="170" y="450" />
            </Array>
            <mxPoint as="offset" />
          </mxGeometry>
        </mxCell>
        <mxCell id="VLkCCcEFtnHO4OE81r_f-19" value="Info_lamaran" style="edgeStyle=orthogonalEdgeStyle;rounded=0;orthogonalLoop=1;jettySize=auto;html=1;entryX=0.588;entryY=0.992;entryDx=0;entryDy=0;entryPerimeter=0;exitX=0.741;exitY=0.064;exitDx=0;exitDy=0;exitPerimeter=0;" parent="1" source="wzpd3i1nVH5FS_Z6VD1y-1" target="j5Hv5ltrt3Dy-K9MW8Oq-16" edge="1">
          <mxGeometry x="0.2516" relative="1" as="geometry">
            <Array as="points">
              <mxPoint x="482" y="210" />
              <mxPoint x="490" y="210" />
              <mxPoint x="490" y="470" />
              <mxPoint x="161" y="470" />
            </Array>
            <mxPoint as="offset" />
          </mxGeometry>
        </mxCell>
        <mxCell id="wzpd3i1nVH5FS_Z6VD1y-1" value="SISTEM REKRUTMEN KARYAWAN" style="ellipse;whiteSpace=wrap;html=1;aspect=fixed;direction=south;" parent="1" vertex="1">
          <mxGeometry x="360" y="120" width="130" height="130" as="geometry" />
        </mxCell>
        <mxCell id="wzpd3i1nVH5FS_Z6VD1y-24" value="data_lamaran" style="edgeStyle=orthogonalEdgeStyle;rounded=0;orthogonalLoop=1;jettySize=auto;html=1;entryX=0.246;entryY=0.043;entryDx=0;entryDy=0;entryPerimeter=0;" parent="1" source="wzpd3i1nVH5FS_Z6VD1y-2" target="wzpd3i1nVH5FS_Z6VD1y-1" edge="1">
          <mxGeometry x="-0.3934" relative="1" as="geometry">
            <Array as="points">
              <mxPoint x="110" y="-30" />
              <mxPoint x="484" y="-30" />
            </Array>
            <mxPoint as="offset" />
          </mxGeometry>
        </mxCell>
        <mxCell id="wzpd3i1nVH5FS_Z6VD1y-27" value="data_master_formulir" style="edgeStyle=orthogonalEdgeStyle;rounded=0;orthogonalLoop=1;jettySize=auto;html=1;entryX=0.037;entryY=0.309;entryDx=0;entryDy=0;entryPerimeter=0;" parent="1" source="wzpd3i1nVH5FS_Z6VD1y-2" target="wzpd3i1nVH5FS_Z6VD1y-1" edge="1">
          <mxGeometry x="-0.2803" relative="1" as="geometry">
            <Array as="points">
              <mxPoint x="150" y="10" />
              <mxPoint x="450" y="10" />
            </Array>
            <mxPoint as="offset" />
            <mxPoint x="450" y="120" as="targetPoint" />
          </mxGeometry>
        </mxCell>
        <mxCell id="j5Hv5ltrt3Dy-K9MW8Oq-4" value="" style="edgeStyle=orthogonalEdgeStyle;rounded=0;orthogonalLoop=1;jettySize=auto;html=1;exitX=0.2;exitY=0.895;exitDx=0;exitDy=0;exitPerimeter=0;" parent="1" source="wzpd3i1nVH5FS_Z6VD1y-1" target="wzpd3i1nVH5FS_Z6VD1y-2" edge="1">
          <mxGeometry x="0.0414" y="10" relative="1" as="geometry">
            <Array as="points">
              <mxPoint x="374" y="130" />
              <mxPoint x="170" y="130" />
            </Array>
            <mxPoint as="offset" />
          </mxGeometry>
        </mxCell>
        <mxCell id="VLkCCcEFtnHO4OE81r_f-25" value="info_master_jabatan" style="edgeLabel;html=1;align=center;verticalAlign=middle;resizable=0;points=[];" parent="j5Hv5ltrt3Dy-K9MW8Oq-4" vertex="1" connectable="0">
          <mxGeometry x="0.2396" y="1" relative="1" as="geometry">
            <mxPoint x="-5" y="-1" as="offset" />
          </mxGeometry>
        </mxCell>
        <mxCell id="j5Hv5ltrt3Dy-K9MW8Oq-5" value="info_lowongan" style="edgeStyle=orthogonalEdgeStyle;rounded=0;orthogonalLoop=1;jettySize=auto;html=1;exitX=0.451;exitY=0.997;exitDx=0;exitDy=0;exitPerimeter=0;" parent="1" source="wzpd3i1nVH5FS_Z6VD1y-1" target="wzpd3i1nVH5FS_Z6VD1y-2" edge="1">
          <mxGeometry x="0.2233" relative="1" as="geometry">
            <Array as="points">
              <mxPoint x="360" y="170" />
              <mxPoint x="130" y="170" />
            </Array>
            <mxPoint as="offset" />
          </mxGeometry>
        </mxCell>
        <mxCell id="VLkCCcEFtnHO4OE81r_f-27" value="data_master_jabatan" style="edgeStyle=orthogonalEdgeStyle;rounded=0;orthogonalLoop=1;jettySize=auto;html=1;" parent="1" source="wzpd3i1nVH5FS_Z6VD1y-2" target="wzpd3i1nVH5FS_Z6VD1y-1" edge="1">
          <mxGeometry x="-0.2676" relative="1" as="geometry">
            <Array as="points">
              <mxPoint x="170" y="30" />
              <mxPoint x="425" y="30" />
            </Array>
            <mxPoint as="offset" />
          </mxGeometry>
        </mxCell>
        <mxCell id="wzpd3i1nVH5FS_Z6VD1y-2" value="PETUGAS SDM" style="rounded=0;whiteSpace=wrap;html=1;" parent="1" vertex="1">
          <mxGeometry x="80" y="40" width="120" height="60" as="geometry" />
        </mxCell>
        <mxCell id="wzpd3i1nVH5FS_Z6VD1y-37" value="data_lamaran" style="edgeStyle=orthogonalEdgeStyle;rounded=0;orthogonalLoop=1;jettySize=auto;html=1;" parent="1" source="wzpd3i1nVH5FS_Z6VD1y-3" edge="1">
          <mxGeometry x="0.0667" relative="1" as="geometry">
            <Array as="points">
              <mxPoint x="490" y="190" />
            </Array>
            <mxPoint as="offset" />
            <mxPoint x="490" y="190" as="targetPoint" />
          </mxGeometry>
        </mxCell>
        <mxCell id="wzpd3i1nVH5FS_Z6VD1y-3" value="PELAMAR" style="rounded=0;whiteSpace=wrap;html=1;" parent="1" vertex="1">
          <mxGeometry x="640" y="150" width="120" height="60" as="geometry" />
        </mxCell>
        <mxCell id="VLkCCcEFtnHO4OE81r_f-20" value="data_master_jabatan" style="edgeStyle=orthogonalEdgeStyle;rounded=0;orthogonalLoop=1;jettySize=auto;html=1;entryX=0.979;entryY=0.627;entryDx=0;entryDy=0;entryPerimeter=0;" parent="1" source="j5Hv5ltrt3Dy-K9MW8Oq-16" target="wzpd3i1nVH5FS_Z6VD1y-1" edge="1">
          <mxGeometry x="-0.2888" relative="1" as="geometry">
            <Array as="points">
              <mxPoint x="200" y="310" />
              <mxPoint x="409" y="310" />
            </Array>
            <mxPoint as="offset" />
          </mxGeometry>
        </mxCell>
        <mxCell id="VLkCCcEFtnHO4OE81r_f-21" value="data_master_formulir" style="edgeStyle=orthogonalEdgeStyle;rounded=0;orthogonalLoop=1;jettySize=auto;html=1;entryX=0.95;entryY=0.703;entryDx=0;entryDy=0;entryPerimeter=0;" parent="1" source="j5Hv5ltrt3Dy-K9MW8Oq-16" target="wzpd3i1nVH5FS_Z6VD1y-1" edge="1">
          <mxGeometry x="-0.1581" relative="1" as="geometry">
            <Array as="points">
              <mxPoint x="190" y="290" />
              <mxPoint x="399" y="290" />
            </Array>
            <mxPoint as="offset" />
          </mxGeometry>
        </mxCell>
        <mxCell id="VLkCCcEFtnHO4OE81r_f-22" value="data_lamaran" style="edgeStyle=orthogonalEdgeStyle;rounded=0;orthogonalLoop=1;jettySize=auto;html=1;entryX=0.911;entryY=0.779;entryDx=0;entryDy=0;entryPerimeter=0;" parent="1" source="j5Hv5ltrt3Dy-K9MW8Oq-16" target="wzpd3i1nVH5FS_Z6VD1y-1" edge="1">
          <mxGeometry x="-0.1042" relative="1" as="geometry">
            <Array as="points">
              <mxPoint x="180" y="270" />
              <mxPoint x="389" y="270" />
            </Array>
            <mxPoint as="offset" />
          </mxGeometry>
        </mxCell>
        <mxCell id="VLkCCcEFtnHO4OE81r_f-23" value="data_lowongan" style="edgeStyle=orthogonalEdgeStyle;rounded=0;orthogonalLoop=1;jettySize=auto;html=1;entryX=1;entryY=1;entryDx=0;entryDy=0;" parent="1" source="j5Hv5ltrt3Dy-K9MW8Oq-16" target="wzpd3i1nVH5FS_Z6VD1y-1" edge="1">
          <mxGeometry x="0.0066" relative="1" as="geometry">
            <Array as="points">
              <mxPoint x="170" y="250" />
              <mxPoint x="379" y="250" />
            </Array>
            <mxPoint as="offset" />
          </mxGeometry>
        </mxCell>
        <mxCell id="VLkCCcEFtnHO4OE81r_f-24" value="data_user" style="edgeStyle=orthogonalEdgeStyle;rounded=0;orthogonalLoop=1;jettySize=auto;html=1;entryX=0.769;entryY=0.923;entryDx=0;entryDy=0;entryPerimeter=0;" parent="1" source="j5Hv5ltrt3Dy-K9MW8Oq-16" target="wzpd3i1nVH5FS_Z6VD1y-1" edge="1">
          <mxGeometry x="-0.0325" relative="1" as="geometry">
            <Array as="points">
              <mxPoint x="160" y="230" />
              <mxPoint x="370" y="230" />
            </Array>
            <mxPoint as="offset" />
          </mxGeometry>
        </mxCell>
        <mxCell id="9PwCYShRNExRzvQcP7ae-68" value="data_master_perusahaan" style="edgeStyle=orthogonalEdgeStyle;rounded=0;orthogonalLoop=1;jettySize=auto;html=1;entryX=0.697;entryY=0.96;entryDx=0;entryDy=0;entryPerimeter=0;" edge="1" parent="1" source="j5Hv5ltrt3Dy-K9MW8Oq-16" target="wzpd3i1nVH5FS_Z6VD1y-1">
          <mxGeometry x="0.2834" relative="1" as="geometry">
            <mxPoint x="360" y="210" as="targetPoint" />
            <Array as="points">
              <mxPoint x="150" y="211" />
            </Array>
            <mxPoint as="offset" />
          </mxGeometry>
        </mxCell>
        <mxCell id="j5Hv5ltrt3Dy-K9MW8Oq-16" value="SUPERUSER" style="rounded=0;whiteSpace=wrap;html=1;" parent="1" vertex="1">
          <mxGeometry x="90" y="320" width="120" height="60" as="geometry" />
        </mxCell>
        <mxCell id="9PwCYShRNExRzvQcP7ae-73" value="data_user" style="edgeStyle=orthogonalEdgeStyle;rounded=0;orthogonalLoop=1;jettySize=auto;html=1;" edge="1" parent="1">
          <mxGeometry relative="1" as="geometry">
            <mxPoint x="-190.00000000000023" y="874" as="sourcePoint" />
            <mxPoint x="-280" y="874" as="targetPoint" />
          </mxGeometry>
        </mxCell>
        <mxCell id="9PwCYShRNExRzvQcP7ae-74" value="data_user" style="edgeStyle=orthogonalEdgeStyle;rounded=0;orthogonalLoop=1;jettySize=auto;html=1;entryX=0;entryY=0.25;entryDx=0;entryDy=0;" edge="1" parent="1" source="9PwCYShRNExRzvQcP7ae-2" target="9PwCYShRNExRzvQcP7ae-8">
          <mxGeometry x="0.252" relative="1" as="geometry">
            <Array as="points">
              <mxPoint x="-150" y="685" />
            </Array>
            <mxPoint as="offset" />
          </mxGeometry>
        </mxCell>
        <mxCell id="9PwCYShRNExRzvQcP7ae-76" value="data_user" style="edgeStyle=orthogonalEdgeStyle;rounded=0;orthogonalLoop=1;jettySize=auto;html=1;" edge="1" parent="1" source="9PwCYShRNExRzvQcP7ae-2">
          <mxGeometry relative="1" as="geometry">
            <mxPoint x="20" y="850" as="targetPoint" />
            <Array as="points">
              <mxPoint x="20" y="850" />
            </Array>
          </mxGeometry>
        </mxCell>
        <mxCell id="9PwCYShRNExRzvQcP7ae-78" value="data_user" style="edgeStyle=orthogonalEdgeStyle;rounded=0;orthogonalLoop=1;jettySize=auto;html=1;entryX=0;entryY=0.25;entryDx=0;entryDy=0;" edge="1" parent="1" source="9PwCYShRNExRzvQcP7ae-2" target="9PwCYShRNExRzvQcP7ae-16">
          <mxGeometry x="0.3257" relative="1" as="geometry">
            <Array as="points">
              <mxPoint x="-130" y="1055" />
            </Array>
            <mxPoint as="offset" />
          </mxGeometry>
        </mxCell>
        <mxCell id="9PwCYShRNExRzvQcP7ae-2" value="&lt;div&gt;P.1&lt;/div&gt;&lt;div&gt;Login&lt;br&gt;&lt;/div&gt;" style="ellipse;whiteSpace=wrap;html=1;aspect=fixed;" vertex="1" parent="1">
          <mxGeometry x="-190" y="821" width="90" height="90" as="geometry" />
        </mxCell>
        <mxCell id="9PwCYShRNExRzvQcP7ae-77" value="data_user" style="edgeStyle=orthogonalEdgeStyle;rounded=0;orthogonalLoop=1;jettySize=auto;html=1;" edge="1" parent="1" source="9PwCYShRNExRzvQcP7ae-5" target="9PwCYShRNExRzvQcP7ae-2">
          <mxGeometry relative="1" as="geometry">
            <Array as="points">
              <mxPoint x="-70" y="880" />
              <mxPoint x="-70" y="880" />
            </Array>
          </mxGeometry>
        </mxCell>
        <mxCell id="9PwCYShRNExRzvQcP7ae-5" value="PETUGAS SDM" style="rounded=0;whiteSpace=wrap;html=1;" vertex="1" parent="1">
          <mxGeometry x="20" y="830" width="120" height="60" as="geometry" />
        </mxCell>
        <mxCell id="9PwCYShRNExRzvQcP7ae-75" value="data_user" style="edgeStyle=orthogonalEdgeStyle;rounded=0;orthogonalLoop=1;jettySize=auto;html=1;" edge="1" parent="1" source="9PwCYShRNExRzvQcP7ae-8" target="9PwCYShRNExRzvQcP7ae-2">
          <mxGeometry x="-0.2007" relative="1" as="geometry">
            <Array as="points">
              <mxPoint x="-130" y="710" />
            </Array>
            <mxPoint as="offset" />
          </mxGeometry>
        </mxCell>
        <mxCell id="9PwCYShRNExRzvQcP7ae-8" value="PELAMAR" style="rounded=0;whiteSpace=wrap;html=1;" vertex="1" parent="1">
          <mxGeometry x="20" y="670" width="120" height="60" as="geometry" />
        </mxCell>
        <mxCell id="9PwCYShRNExRzvQcP7ae-79" value="data_user" style="edgeStyle=orthogonalEdgeStyle;rounded=0;orthogonalLoop=1;jettySize=auto;html=1;entryX=0.406;entryY=1.02;entryDx=0;entryDy=0;entryPerimeter=0;" edge="1" parent="1" source="9PwCYShRNExRzvQcP7ae-16" target="9PwCYShRNExRzvQcP7ae-2">
          <mxGeometry x="-0.3543" relative="1" as="geometry">
            <Array as="points">
              <mxPoint x="-154" y="1080" />
            </Array>
            <mxPoint as="offset" />
          </mxGeometry>
        </mxCell>
        <mxCell id="9PwCYShRNExRzvQcP7ae-16" value="SUPERUSER" style="rounded=0;whiteSpace=wrap;html=1;" vertex="1" parent="1">
          <mxGeometry x="20" y="1040" width="120" height="60" as="geometry" />
        </mxCell>
        <mxCell id="9PwCYShRNExRzvQcP7ae-72" value="data_user" style="edgeStyle=orthogonalEdgeStyle;rounded=0;orthogonalLoop=1;jettySize=auto;html=1;entryX=0;entryY=0.5;entryDx=0;entryDy=0;" edge="1" parent="1">
          <mxGeometry relative="1" as="geometry">
            <mxPoint x="-280" y="857" as="sourcePoint" />
            <mxPoint x="-189.99999999999955" y="857" as="targetPoint" />
          </mxGeometry>
        </mxCell>
        <mxCell id="9PwCYShRNExRzvQcP7ae-18" value="User" style="html=1;dashed=0;whitespace=wrap;shape=partialRectangle;right=0;left=0;" vertex="1" parent="1">
          <mxGeometry x="-380" y="851" width="100" height="30" as="geometry" />
        </mxCell>
        <mxCell id="9PwCYShRNExRzvQcP7ae-20" value="Lowongan" style="html=1;dashed=0;whitespace=wrap;shape=partialRectangle;right=0;left=0;" vertex="1" parent="1">
          <mxGeometry x="600" y="760.5" width="100" height="30" as="geometry" />
        </mxCell>
        <mxCell id="9PwCYShRNExRzvQcP7ae-24" value="&lt;div&gt;P.2&lt;/div&gt;&lt;div&gt;Kelola Data Lowongan&lt;br&gt;&lt;/div&gt;" style="ellipse;whiteSpace=wrap;html=1;aspect=fixed;" vertex="1" parent="1">
          <mxGeometry x="250" y="660" width="90" height="90" as="geometry" />
        </mxCell>
        <mxCell id="9PwCYShRNExRzvQcP7ae-32" value="&lt;div&gt;P.3&lt;/div&gt;&lt;div&gt;Kelola Master Data&lt;br&gt;&lt;/div&gt;" style="ellipse;whiteSpace=wrap;html=1;aspect=fixed;" vertex="1" parent="1">
          <mxGeometry x="250" y="780" width="90" height="90" as="geometry" />
        </mxCell>
        <mxCell id="9PwCYShRNExRzvQcP7ae-36" value="&lt;div&gt;P.4&lt;/div&gt;&lt;div&gt;Kelola Laporan Lamaran&lt;br&gt;&lt;/div&gt;" style="ellipse;whiteSpace=wrap;html=1;aspect=fixed;" vertex="1" parent="1">
          <mxGeometry x="250" y="900" width="90" height="90" as="geometry" />
        </mxCell>
        <mxCell id="9PwCYShRNExRzvQcP7ae-39" value="&lt;div&gt;P.5&lt;/div&gt;&lt;div&gt;Kelola User&lt;br&gt;&lt;/div&gt;" style="ellipse;whiteSpace=wrap;html=1;aspect=fixed;" vertex="1" parent="1">
          <mxGeometry x="250" y="1020" width="90" height="90" as="geometry" />
        </mxCell>
        <mxCell id="9PwCYShRNExRzvQcP7ae-52" value="Biodata Lamaran" style="html=1;dashed=0;whitespace=wrap;shape=partialRectangle;right=0;left=0;" vertex="1" parent="1">
          <mxGeometry x="600" y="1020" width="100" height="29" as="geometry" />
        </mxCell>
        <mxCell id="9PwCYShRNExRzvQcP7ae-53" value="Formulir Lamaran" style="html=1;dashed=0;whitespace=wrap;shape=partialRectangle;right=0;left=0;" vertex="1" parent="1">
          <mxGeometry x="600" y="1090" width="100" height="29" as="geometry" />
        </mxCell>
        <mxCell id="9PwCYShRNExRzvQcP7ae-54" value="Master Formulir" style="html=1;dashed=0;whitespace=wrap;shape=partialRectangle;right=0;left=0;" vertex="1" parent="1">
          <mxGeometry x="600" y="941" width="100" height="29" as="geometry" />
        </mxCell>
        <mxCell id="9PwCYShRNExRzvQcP7ae-55" value="Jabatan" style="html=1;dashed=0;whitespace=wrap;shape=partialRectangle;right=0;left=0;" vertex="1" parent="1">
          <mxGeometry x="600" y="881" width="100" height="29" as="geometry" />
        </mxCell>
        <mxCell id="9PwCYShRNExRzvQcP7ae-56" value="Perusahaan" style="html=1;dashed=0;whitespace=wrap;shape=partialRectangle;right=0;left=0;" vertex="1" parent="1">
          <mxGeometry x="600" y="821" width="100" height="29" as="geometry" />
        </mxCell>
        <mxCell id="9PwCYShRNExRzvQcP7ae-61" value="Formulir Lamaran" style="html=1;dashed=0;whitespace=wrap;shape=partialRectangle;right=0;left=0;" vertex="1" parent="1">
          <mxGeometry x="600" y="1090" width="100" height="29" as="geometry" />
        </mxCell>
        <mxCell id="9PwCYShRNExRzvQcP7ae-62" value="Biodata Lamaran" style="html=1;dashed=0;whitespace=wrap;shape=partialRectangle;right=0;left=0;" vertex="1" parent="1">
          <mxGeometry x="600" y="1020" width="100" height="29" as="geometry" />
        </mxCell>
        <mxCell id="9PwCYShRNExRzvQcP7ae-63" value="Formulir Lamaran" style="html=1;dashed=0;whitespace=wrap;shape=partialRectangle;right=0;left=0;" vertex="1" parent="1">
          <mxGeometry x="600" y="1089" width="100" height="30" as="geometry" />
        </mxCell>
        <mxCell id="9PwCYShRNExRzvQcP7ae-64" value="Biodata Lamaran" style="html=1;dashed=0;whitespace=wrap;shape=partialRectangle;right=0;left=0;" vertex="1" parent="1">
          <mxGeometry x="600" y="1019" width="100" height="30" as="geometry" />
        </mxCell>
        <mxCell id="9PwCYShRNExRzvQcP7ae-65" value="Master Formulir" style="html=1;dashed=0;whitespace=wrap;shape=partialRectangle;right=0;left=0;" vertex="1" parent="1">
          <mxGeometry x="600" y="940" width="100" height="30" as="geometry" />
        </mxCell>
        <mxCell id="9PwCYShRNExRzvQcP7ae-66" value="Jabatan" style="html=1;dashed=0;whitespace=wrap;shape=partialRectangle;right=0;left=0;" vertex="1" parent="1">
          <mxGeometry x="600" y="880" width="100" height="30" as="geometry" />
        </mxCell>
        <mxCell id="9PwCYShRNExRzvQcP7ae-67" value="Perusahaan" style="html=1;dashed=0;whitespace=wrap;shape=partialRectangle;right=0;left=0;" vertex="1" parent="1">
          <mxGeometry x="600" y="820" width="100" height="30" as="geometry" />
        </mxCell>
      </root>
    </mxGraphModel>
  </diagram>
</mxfile>
